<svg width="138" height="33" viewBox="0 0 138 33" fill="none" xmlns="http://www.w3.org/2000/svg">
<g clip-path="url(#clip0_4_4)">
<path fill-rule="evenodd" clip-rule="evenodd" d="M25.255 5.44799C26.2295 5.07668 27.2889 4.98714 28.3119 5.18963C29.335 5.39211 30.2804 5.87844 31.04 6.59299C33.104 8.51799 33.598 11.751 32.215 14.28L22.025 32.433H11.33L1.13999 14.28C-0.242012 11.75 0.251988 8.51799 2.31399 6.59299C3.07376 5.87836 4.01933 5.39198 5.04254 5.1895C6.06575 4.98701 7.1253 5.07659 8.09999 5.44799L9.58599 6.00799C14.868 7.75999 11.013 0.774994 11.013 0.774994H22.34C22.34 0.774994 18.483 7.76099 23.767 6.00799L25.255 5.44799ZM6.82699 18.415C4.70499 10.127 9.64699 9.415 10.168 9.36199L7.06299 8.19199C6.59966 8.01556 6.09603 7.9731 5.6097 8.06948C5.12338 8.16586 4.674 8.39719 4.31299 8.73699C3.21699 9.75999 2.96299 11.496 3.70799 12.867L6.82699 18.415ZM26.523 18.42L29.644 12.866C30.39 11.496 30.134 9.76099 29.038 8.73699C28.6769 8.39725 28.2275 8.16604 27.7412 8.06984C27.2548 7.97363 26.7512 8.01631 26.288 8.19299L23.183 9.36299C23.705 9.41399 28.648 10.127 26.523 18.42ZM10.553 22.158C10.855 25.522 13.507 27.139 16.871 27.139C19.955 27.139 22.801 25.586 22.801 22.459C22.801 19.936 20.904 18.599 17.971 17.996L16.203 17.629C14.586 17.284 13.853 16.831 13.853 15.817C13.853 14.632 15.103 13.834 16.656 13.834C18.316 13.834 19.438 14.674 19.653 16.076H22.543C22.241 13.143 19.847 11.461 16.656 11.461C13.529 11.461 10.963 13.338 10.963 16.055C10.963 18.297 12.451 19.678 15.448 20.325L17.001 20.67C18.791 21.036 19.869 21.618 19.869 22.761C19.869 24.034 18.553 24.788 16.871 24.788C15.103 24.788 13.701 23.926 13.443 22.158H10.553Z" fill="white"/>
<path d="M53.1548 14.6378C53.098 14.0649 52.8542 13.6198 52.4233 13.3026C51.9924 12.9853 51.4077 12.8267 50.669 12.8267C50.1671 12.8267 49.7434 12.8977 49.3977 13.0398C49.0521 13.1771 48.7869 13.3688 48.6023 13.6151C48.4223 13.8613 48.3324 14.1406 48.3324 14.4531C48.3229 14.7135 48.3774 14.9408 48.4957 15.1349C48.6188 15.3291 48.7869 15.4972 49 15.6392C49.2131 15.7765 49.4593 15.8973 49.7386 16.0014C50.018 16.1009 50.3163 16.1861 50.6335 16.2571L51.9403 16.5696C52.5748 16.7116 53.1572 16.901 53.6875 17.1378C54.2178 17.3745 54.6771 17.6657 55.0653 18.0114C55.4536 18.357 55.7543 18.7642 55.9673 19.233C56.1851 19.7017 56.2964 20.2391 56.3011 20.8452C56.2964 21.7353 56.0691 22.5071 55.6193 23.1605C55.1742 23.8092 54.5303 24.3134 53.6875 24.6733C52.8494 25.0284 51.8385 25.206 50.6548 25.206C49.4806 25.206 48.4579 25.026 47.5866 24.6662C46.7202 24.3063 46.0431 23.7737 45.5554 23.0682C45.0724 22.358 44.8191 21.4796 44.7955 20.4332H47.7713C47.8045 20.9209 47.9441 21.3281 48.1903 21.6548C48.4413 21.9768 48.7751 22.2206 49.1918 22.3864C49.6132 22.5473 50.089 22.6278 50.6193 22.6278C51.1402 22.6278 51.5923 22.5521 51.9759 22.4006C52.3641 22.2491 52.6648 22.0384 52.8778 21.7685C53.0909 21.4986 53.1974 21.1884 53.1974 20.8381C53.1974 20.5114 53.1004 20.2367 52.9062 20.0142C52.7169 19.7917 52.4375 19.6023 52.0682 19.446C51.7036 19.2898 51.2562 19.1477 50.7259 19.0199L49.142 18.6222C47.9157 18.3239 46.9474 17.8575 46.2372 17.223C45.527 16.5885 45.1742 15.7339 45.179 14.6591C45.1742 13.7784 45.4086 13.009 45.8821 12.3509C46.3603 11.6927 47.0161 11.179 47.8494 10.8097C48.6828 10.4403 49.6297 10.2557 50.6903 10.2557C51.7699 10.2557 52.7121 10.4403 53.517 10.8097C54.3267 11.179 54.9564 11.6927 55.4062 12.3509C55.8561 13.009 56.0881 13.7713 56.1023 14.6378H53.1548ZM64.1154 14.0909V16.3636H57.5458V14.0909H64.1154ZM59.0373 11.4773H62.0629V21.6477C62.0629 21.9271 62.1055 22.1449 62.1907 22.3011C62.2759 22.4527 62.3943 22.5592 62.5458 22.6207C62.7021 22.6823 62.882 22.7131 63.0856 22.7131C63.2276 22.7131 63.3697 22.7012 63.5117 22.6776C63.6538 22.6491 63.7627 22.6278 63.8384 22.6136L64.3143 24.8651C64.1628 24.9124 63.9497 24.9669 63.6751 25.0284C63.4004 25.0947 63.0666 25.1349 62.6737 25.1491C61.9445 25.1776 61.3053 25.0805 60.756 24.858C60.2115 24.6354 59.7878 24.2898 59.4847 23.821C59.1817 23.3523 59.0326 22.7604 59.0373 22.0455V11.4773ZM66.0863 25V14.0909H69.0195V15.9943H69.1332C69.332 15.3172 69.6658 14.8059 70.1346 14.4602C70.6033 14.1098 71.1431 13.9347 71.7539 13.9347C71.9054 13.9347 72.0688 13.9441 72.244 13.9631C72.4192 13.982 72.573 14.008 72.7056 14.0412V16.7259C72.5636 16.6832 72.3671 16.6454 72.1161 16.6122C71.8652 16.5791 71.6355 16.5625 71.4272 16.5625C70.9821 16.5625 70.5844 16.6596 70.234 16.8537C69.8884 17.0431 69.6138 17.3082 69.4102 17.6491C69.2113 17.9901 69.1119 18.383 69.1119 18.8281V25H66.0863ZM78.6911 25.2131C77.5878 25.2131 76.6338 24.9787 75.8288 24.5099C75.0286 24.0365 74.4107 23.3783 73.9751 22.5355C73.5395 21.688 73.3217 20.7055 73.3217 19.5881C73.3217 18.4612 73.5395 17.4763 73.9751 16.6335C74.4107 15.786 75.0286 15.1278 75.8288 14.6591C76.6338 14.1856 77.5878 13.9489 78.6911 13.9489C79.7943 13.9489 80.746 14.1856 81.5462 14.6591C82.3511 15.1278 82.9714 15.786 83.407 16.6335C83.8426 17.4763 84.0604 18.4612 84.0604 19.5881C84.0604 20.7055 83.8426 21.688 83.407 22.5355C82.9714 23.3783 82.3511 24.0365 81.5462 24.5099C80.746 24.9787 79.7943 25.2131 78.6911 25.2131ZM78.7053 22.8693C79.2071 22.8693 79.6262 22.7273 79.9624 22.4432C80.2985 22.1544 80.5518 21.7614 80.7223 21.2642C80.8975 20.767 80.9851 20.2012 80.9851 19.5668C80.9851 18.9323 80.8975 18.3665 80.7223 17.8693C80.5518 17.3722 80.2985 16.9792 79.9624 16.6903C79.6262 16.4015 79.2071 16.2571 78.7053 16.2571C78.1986 16.2571 77.7725 16.4015 77.4268 16.6903C77.0859 16.9792 76.8279 17.3722 76.6527 17.8693C76.4822 18.3665 76.397 18.9323 76.397 19.5668C76.397 20.2012 76.4822 20.767 76.6527 21.2642C76.8279 21.7614 77.0859 22.1544 77.4268 22.4432C77.7725 22.7273 78.1986 22.8693 78.7053 22.8693ZM89.0533 18.6932V25H86.0277V14.0909H88.9112V16.0156H89.0391C89.2805 15.3812 89.6854 14.8793 90.2536 14.5099C90.8217 14.1359 91.5107 13.9489 92.3203 13.9489C93.0779 13.9489 93.7384 14.1146 94.3018 14.446C94.8653 14.7775 95.3033 15.2509 95.6158 15.8665C95.9283 16.4773 96.0845 17.2064 96.0845 18.054V25H93.0589V18.5938C93.0637 17.9261 92.8932 17.4053 92.5476 17.0312C92.2019 16.6525 91.7261 16.4631 91.12 16.4631C90.7128 16.4631 90.353 16.5507 90.0405 16.7259C89.7327 16.901 89.4912 17.1567 89.3161 17.4929C89.1456 17.8243 89.058 18.2244 89.0533 18.6932ZM103.384 29.3182C102.404 29.3182 101.563 29.1832 100.863 28.9134C100.167 28.6482 99.6126 28.286 99.2006 27.8267C98.7887 27.3674 98.5212 26.8513 98.3981 26.2784L101.196 25.902C101.282 26.1198 101.417 26.3234 101.601 26.5128C101.786 26.7022 102.03 26.8537 102.333 26.9673C102.641 27.0857 103.015 27.1449 103.455 27.1449C104.113 27.1449 104.655 26.9839 105.081 26.6619C105.512 26.3447 105.728 25.812 105.728 25.0639V23.0682H105.6C105.467 23.3712 105.268 23.6577 105.003 23.9276C104.738 24.1974 104.397 24.4176 103.98 24.5881C103.564 24.7585 103.067 24.8438 102.489 24.8438C101.67 24.8438 100.924 24.6544 100.252 24.2756C99.5842 23.892 99.0515 23.3073 98.6538 22.5213C98.2608 21.7306 98.0643 20.7315 98.0643 19.5241C98.0643 18.2884 98.2655 17.2562 98.668 16.4276C99.0704 15.599 99.6055 14.9787 100.273 14.5668C100.945 14.1548 101.682 13.9489 102.482 13.9489C103.093 13.9489 103.604 14.053 104.016 14.2614C104.428 14.465 104.759 14.7206 105.01 15.0284C105.266 15.3314 105.462 15.6297 105.6 15.9233H105.713V14.0909H108.718V25.1065C108.718 26.0346 108.49 26.8111 108.036 27.4361C107.581 28.0611 106.952 28.5298 106.147 28.8423C105.346 29.1596 104.426 29.3182 103.384 29.3182ZM103.448 22.571C103.935 22.571 104.347 22.4503 104.684 22.2088C105.025 21.9626 105.285 21.6122 105.465 21.1577C105.65 20.6984 105.742 20.1491 105.742 19.5099C105.742 18.8707 105.652 18.3168 105.472 17.848C105.292 17.3745 105.032 17.0076 104.691 16.7472C104.35 16.4867 103.935 16.3565 103.448 16.3565C102.951 16.3565 102.532 16.4915 102.191 16.7614C101.85 17.0265 101.592 17.3958 101.417 17.8693C101.241 18.3428 101.154 18.8897 101.154 19.5099C101.154 20.1397 101.241 20.6842 101.417 21.1435C101.596 21.598 101.855 21.9508 102.191 22.2017C102.532 22.4479 102.951 22.571 103.448 22.571Z" fill="white"/>
</g>
<defs>
<clipPath id="clip0_4_4">
<rect width="138" height="33" fill="white"/>
</clipPath>
</defs>
</svg>
