<svg width="138" height="33" fill="none" xmlns="http://www.w3.org/2000/svg"
id="svg178045316_4635"
><path d="M54.22 12.522c-.26-1.241-.821-2.183-1.682-2.824-.862-.64-1.953-.96-3.275-.96-1.262 0-2.273.29-3.034.87-.761.561-1.142 1.302-1.142 2.223 0 .782.27 1.372.811 1.773.561.38 1.372.69 2.434.931l3.635.841c1.442.38 2.593.761 3.455 1.142.86.36 1.582.971 2.163 1.832.6.842.9 2.003.9 3.485 0 1.382-.38 2.554-1.14 3.515-.742.962-1.753 1.683-3.035 2.163-1.282.46-2.724.691-4.326.691-2.644 0-4.797-.61-6.46-1.832-1.641-1.222-2.633-2.974-2.973-5.258l3.755-.39c.18 1.582.791 2.734 1.833 3.455 1.041.7 2.343 1.051 3.905 1.051 1.362 0 2.463-.29 3.305-.871.86-.601 1.291-1.402 1.291-2.404 0-.66-.15-1.191-.45-1.592-.3-.4-.711-.7-1.232-.901-.52-.22-1.222-.44-2.103-.66l-3.785-.962c-1.142-.28-2.123-.621-2.944-1.022a5.263 5.263 0 0 1-2.043-1.772c-.54-.781-.811-1.803-.811-3.064 0-1.262.35-2.354 1.051-3.275.701-.941 1.663-1.662 2.884-2.163 1.222-.5 2.594-.751 4.116-.751 2.343 0 4.236.56 5.678 1.682 1.462 1.102 2.443 2.684 2.944 4.747l-3.725.3ZM67.11 24.84c.68 0 1.162-.01 1.442-.03v2.914c-.48.04-1.302.06-2.464.06-1.041 0-1.872-.1-2.493-.3-.6-.201-1.051-.562-1.352-1.082-.3-.521-.45-1.262-.45-2.223v-9.824h-2.584V11.83h2.583V7.385h3.515v4.446h3.395v2.524h-3.395v8.892c0 .681.13 1.122.39 1.322.261.18.732.27 1.413.27Zm6.575-10.605h.12a5.137 5.137 0 0 1 1.893-1.983c.821-.52 1.772-.781 2.854-.781.46 0 .891.05 1.292.15v3.365c-.561-.08-1.092-.12-1.593-.12-2.924 0-4.386 1.522-4.386 4.566v8.292H70.35V11.83h3.335v2.404Zm22.269 8.832c-.42 1.382-1.231 2.564-2.433 3.545-1.201.981-2.894 1.472-5.077 1.472-1.522 0-2.864-.34-4.026-1.021-1.161-.701-2.062-1.673-2.703-2.915-.621-1.241-.932-2.683-.932-4.325 0-1.683.31-3.145.932-4.387.62-1.261 1.502-2.233 2.643-2.914 1.162-.7 2.524-1.051 4.086-1.051 1.502 0 2.824.32 3.966.961 1.161.641 2.063 1.582 2.703 2.824.661 1.222.992 2.684.992 4.386 0 .2-.02.521-.06.962H84.358c.04 1.422.431 2.583 1.172 3.485.741.88 1.712 1.321 2.914 1.321 1.142 0 2.023-.27 2.644-.81.62-.562 1.051-1.203 1.291-1.924l3.575.391Zm-7.51-8.922c-1.182 0-2.123.38-2.824 1.141-.68.741-1.081 1.673-1.202 2.794H92.5c-.12-1.121-.531-2.053-1.232-2.794-.68-.76-1.622-1.141-2.824-1.141Zm20.026 13.579c-.14-.16-.26-.431-.36-.812-.08-.38-.12-.82-.12-1.322-.461.802-1.192 1.422-2.193 1.863a7.788 7.788 0 0 1-3.095.631c-.941 0-1.822-.19-2.643-.57a4.673 4.673 0 0 1-1.923-1.653c-.46-.721-.69-1.552-.69-2.494 0-1.642.55-2.854 1.651-3.635 1.122-.78 2.804-1.281 5.047-1.502 1.483-.16 2.494-.37 3.035-.63.54-.281.811-.681.811-1.202 0-.701-.261-1.242-.781-1.623-.501-.38-1.282-.57-2.344-.57-.821 0-1.562.21-2.223.63-.641.421-1.091 1.052-1.352 1.893l-3.244-.63c.34-1.443 1.131-2.574 2.373-3.395 1.262-.821 2.784-1.232 4.567-1.232 2.223 0 3.865.45 4.926 1.352 1.062.901 1.593 2.103 1.593 3.605v7.96c0 .982.02 1.703.06 2.164.06.46.18.851.36 1.172h-3.455Zm-.48-8.022c-.241.22-.691.41-1.352.571-.661.14-1.502.27-2.524.39-.901.12-1.642.401-2.223.842-.58.42-.871 1.011-.871 1.772 0 .701.22 1.242.661 1.623.461.38 1.092.57 1.893.57a5.19 5.19 0 0 0 2.043-.42 3.978 3.978 0 0 0 1.682-1.292c.46-.6.691-1.352.691-2.253v-1.803Zm23.896-8.232c1.502 0 2.763.492 3.785 1.473 1.021.961 1.532 2.393 1.532 4.296v10.485h-3.515V18.2c0-1.362-.26-2.333-.781-2.914-.501-.6-1.262-.901-2.283-.901-.942 0-1.743.41-2.404 1.232-.66.82-.991 1.962-.991 3.424v8.683h-3.515V18.2c0-1.362-.26-2.333-.781-2.914-.501-.6-1.252-.901-2.253-.901-.941 0-1.743.41-2.403 1.232-.661.82-.992 1.962-.992 3.424v8.683h-3.515V11.83h3.365v2.133h.12c1.162-1.662 2.714-2.493 4.657-2.493.981 0 1.882.22 2.703.66.822.441 1.462 1.092 1.923 1.954.721-.862 1.502-1.513 2.343-1.953.842-.44 1.843-.661 3.005-.661Z"
fill="#fff"></path><path fill-rule="evenodd"
clip-rule="evenodd"
d="M25.255 5.448a5.556 5.556 0 0 1 5.785 1.145c2.064 1.925 2.558 5.158 1.175 7.687l-10.19 18.153H11.33L1.14 14.28C-.242 11.75.252 8.518 2.314 6.593A5.557 5.557 0 0 1 8.1 5.448l1.486.56C14.868 7.76 11.013.775 11.013.775H22.34s-3.857 6.986 1.427 5.233l1.487-.56ZM6.827 18.415c-2.122-8.288 2.82-9 3.341-9.053l-3.105-1.17a2.641 2.641 0 0 0-2.75.545c-1.096 1.023-1.35 2.759-.605 4.13l3.119 5.548Zm19.696.005 3.121-5.554h-.001c.746-1.37.491-3.105-.605-4.129a2.64 2.64 0 0 0-2.75-.544l-3.105 1.17c.522.051 5.465.764 3.34 9.057Zm-15.97 3.738c.302 3.364 2.954 4.981 6.318 4.981 3.084 0 5.93-1.553 5.93-4.68 0-2.523-1.897-3.86-4.83-4.463l-1.768-.367c-1.617-.345-2.35-.798-2.35-1.812 0-1.185 1.25-1.983 2.803-1.983 1.66 0 2.782.84 2.997 2.242h2.89c-.302-2.933-2.696-4.615-5.887-4.615-3.127 0-5.693 1.877-5.693 4.594 0 2.242 1.488 3.623 4.485 4.27l1.553.345c1.79.366 2.868.948 2.868 2.091 0 1.273-1.316 2.027-2.998 2.027-1.768 0-3.17-.862-3.428-2.63h-2.89Z"
fill="#fff"></path></svg>