<svg width="41" height="40" viewBox="0 0 41 40" fill="none" xmlns="http://www.w3.org/2000/svg">
<path fill-rule="evenodd" clip-rule="evenodd" d="M31.1278 6.51836C33.5657 5.60005 36.2629 6.13319 38.1667 7.91104H38.1678C40.6781 10.2535 41.2785 14.187 39.5961 17.2641L27.1985 39.3507H14.1847L1.78707 17.2641C0.104737 14.187 0.706097 10.2535 3.21543 7.91104C5.11922 6.13424 7.81641 5.60005 10.2544 6.51836L12.0627 7.19948C18.4908 9.3331 13.7996 0.833252 13.7996 0.833252H27.5826C27.5826 0.833252 22.8903 9.3331 29.3195 7.19948L31.1278 6.51836ZM8.70672 22.2948C6.12526 12.2115 12.1373 11.3439 12.7721 11.281L8.99394 9.85785C7.8353 9.42126 6.55387 9.67523 5.64816 10.5201C4.31425 11.7648 4.0057 13.8764 4.91247 15.544L8.70672 22.2948ZM32.6705 22.3017L36.4686 15.544H36.4665C37.3743 13.8774 37.0647 11.7658 35.7308 10.5201C34.8262 9.67523 33.5437 9.42126 32.385 9.85785L28.6069 11.281C29.2418 11.3439 35.2565 12.2119 32.6705 22.3017ZM13.2403 26.8487C13.6076 30.9418 16.8348 32.9096 20.9279 32.9096C24.6799 32.9096 28.1432 31.0205 28.1432 27.216C28.1432 24.1462 25.8343 22.5195 22.266 21.7849L20.1145 21.3388C18.1467 20.919 17.2546 20.368 17.2546 19.1349C17.2546 17.6918 18.7764 16.721 20.6655 16.721C22.6858 16.721 24.0501 17.7443 24.3125 19.4497H27.8284C27.461 15.8814 24.5487 13.8349 20.6655 13.8349C16.861 13.8349 13.7388 16.1175 13.7388 19.4235C13.7388 22.1522 15.5492 23.8314 19.1962 24.6185L21.0853 25.0383C23.263 25.4844 24.5749 26.1928 24.5749 27.5834C24.5749 29.1314 22.9744 30.0497 20.9279 30.0497C18.7764 30.0497 17.0709 29.0002 16.7561 26.8487H13.2403Z" fill="white"/>
</svg>
